<svg width="875" height="1145" viewBox="0 0 875 1145" fill="none" xmlns="http://www.w3.org/2000/svg">
<path d="M357.92 43.1348C407.562 16.2275 467.438 16.2275 517.08 43.1347L687.575 135.548C725.606 156.162 754.155 190.729 767.209 231.97L859.047 522.103C869.429 554.899 869.429 590.101 859.047 622.897L767.209 913.03C754.155 954.271 725.606 988.838 687.575 1009.45L517.08 1101.87C467.438 1128.77 407.562 1128.77 357.92 1101.87L187.425 1009.45C149.394 988.838 120.845 954.271 107.791 913.03L15.9527 622.897C5.57142 590.101 5.57142 554.899 15.9527 522.103L107.791 231.97C120.845 190.729 149.394 156.162 187.425 135.548L357.92 43.1348Z" fill="#74FF93"/>
<path d="M357.228 151.146C406.875 124.232 466.76 124.232 516.407 151.146L628.5 211.913C666.528 232.528 695.074 267.096 708.126 308.337L775.784 522.109C786.162 554.902 786.162 590.098 775.784 622.891L708.126 836.664C695.074 877.904 666.528 912.472 628.5 933.087L516.407 993.854C466.76 1020.77 406.875 1020.77 357.228 993.854L245.135 933.087C207.107 912.472 178.561 877.904 165.509 836.663L97.8515 622.891C87.4731 590.098 87.4731 554.902 97.8515 522.109L165.509 308.336C178.561 267.096 207.107 232.528 245.135 211.913L357.228 151.146Z" fill="#67E082"/>
</svg>
