<svg width="1049" height="1043" viewBox="0 0 1049 1043" fill="none" xmlns="http://www.w3.org/2000/svg">
<circle cx="521.5" cy="531.5" r="472.5" fill="#5FD379"/>
<circle cx="521.5" cy="531.5" r="472.5" fill="#5FD379"/>
<circle cx="521.5" cy="531.5" r="472.5" fill="#5FD379"/>
<path d="M823 536.5C823 719.03 681 941.5 511.5 867C328.97 867 195 719.03 195 536.5C149 355 328.97 184.5 511.5 184.5C694.03 184.5 781.5 337.5 823 536.5Z" fill="#74FF93"/>
<rect x="479.276" y="4.63928" width="19.5678" height="94.5778" transform="rotate(-13.7147 479.276 4.63928)" fill="#5FD379"/>
<rect x="645.954" y="1032.81" width="19.5678" height="94.5779" transform="rotate(148.94 645.954 1032.81)" fill="#5FD379"/>
<rect x="93.9703" y="513.535" width="19.5678" height="94.5779" transform="rotate(81.0495 93.9703 513.535)" fill="#5FD379"/>
<rect x="119.773" y="663.528" width="19.5678" height="94.5778" transform="rotate(91.5589 119.773 663.528)" fill="#5FD379"/>
<rect x="1019.08" y="351.573" width="19.5678" height="94.5778" transform="rotate(91.5589 1019.08 351.573)" fill="#5FD379"/>
<rect x="1041.38" y="462.644" width="19.5678" height="94.5779" transform="rotate(109.517 1041.38 462.644)" fill="#5FD379"/>
<rect x="1043.98" y="553.428" width="19.5678" height="94.5779" transform="rotate(77.7529 1043.98 553.428)" fill="#5FD379"/>
<rect x="397.937" y="12.5889" width="19.5678" height="94.5778" transform="rotate(1.39974 397.937 12.5889)" fill="#5FD379"/>
<rect x="721.224" y="1000.97" width="19.5678" height="94.5778" transform="rotate(164.054 721.224 1000.97)" fill="#5FD379"/>
<rect x="293" y="42.0825" width="19.5678" height="94.5778" transform="rotate(-17.2095 293 42.0825)" fill="#5FD379"/>
<rect x="812.596" y="941.529" width="19.5678" height="94.5779" transform="rotate(145.445 812.596 941.529)" fill="#5FD379"/>
<rect x="185" y="120.233" width="19.5678" height="94.5778" transform="rotate(-38.692 185 120.233)" fill="#5FD379"/>
<ellipse cx="326" cy="410.5" rx="50" ry="45.5" fill="#FDFF94"/>
<ellipse cx="528" cy="312.5" rx="69" ry="74.5" fill="#FDFF94"/>
<ellipse cx="684.154" cy="471.568" rx="21.2334" ry="58.3918" transform="rotate(-15 684.154 471.568)" fill="#FDFF94"/>
<circle cx="559" cy="564" r="38" fill="#FDFF94"/>
<ellipse cx="394.31" cy="533.56" rx="20.229" ry="49.5611" transform="rotate(23.6647 394.31 533.56)" fill="#FDFF94"/>
<ellipse cx="368" cy="709.5" rx="47" ry="31.5" fill="#FDFF94"/>
<ellipse cx="551.229" cy="740.907" rx="9.92739" ry="125.085" transform="rotate(47.1396 551.229 740.907)" fill="#FDFF94"/>
</svg>
