<svg width="1049" height="1043" viewBox="0 0 1049 1043" fill="none" xmlns="http://www.w3.org/2000/svg">
<circle cx="521.5" cy="531.5" r="472.5" fill="#5FD379"/>
<circle cx="521.5" cy="531.5" r="472.5" fill="#5FD379"/>
<circle cx="521.5" cy="531.5" r="472.5" fill="#5FD379"/>
<path d="M823 536.5C823 719.03 681 941.5 511.5 867C328.97 867 195 719.03 195 536.5C149 355 328.97 184.5 511.5 184.5C694.03 184.5 781.5 337.5 823 536.5Z" fill="#63DE7E"/>
<rect x="479.276" y="4.63928" width="19.5678" height="94.5778" transform="rotate(-13.7147 479.276 4.63928)" fill="#D9D9D9"/>
<rect x="645.954" y="1032.81" width="19.5678" height="94.5779" transform="rotate(148.94 645.954 1032.81)" fill="#D9D9D9"/>
<rect x="93.9703" y="513.535" width="19.5678" height="94.5779" transform="rotate(81.0495 93.9703 513.535)" fill="#D9D9D9"/>
<rect x="119.773" y="663.528" width="19.5678" height="94.5778" transform="rotate(91.5589 119.773 663.528)" fill="#D9D9D9"/>
<rect x="1019.08" y="351.573" width="19.5678" height="94.5778" transform="rotate(91.5589 1019.08 351.573)" fill="#D9D9D9"/>
<rect x="1041.38" y="462.644" width="19.5678" height="94.5779" transform="rotate(109.517 1041.38 462.644)" fill="#D9D9D9"/>
<rect x="1043.98" y="553.428" width="19.5678" height="94.5779" transform="rotate(77.7529 1043.98 553.428)" fill="#D9D9D9"/>
<rect x="397.937" y="12.5889" width="19.5678" height="94.5778" transform="rotate(1.39974 397.937 12.5889)" fill="#D9D9D9"/>
<rect x="721.224" y="1000.97" width="19.5678" height="94.5778" transform="rotate(164.054 721.224 1000.97)" fill="#D9D9D9"/>
<rect x="293" y="42.0825" width="19.5678" height="94.5778" transform="rotate(-17.2095 293 42.0825)" fill="#D9D9D9"/>
<rect x="812.596" y="941.529" width="19.5678" height="94.5779" transform="rotate(145.445 812.596 941.529)" fill="#D9D9D9"/>
<rect x="185" y="120.233" width="19.5678" height="94.5778" transform="rotate(-38.692 185 120.233)" fill="#D9D9D9"/>
<circle cx="298.5" cy="387.5" r="22.5" fill="#D9D9D9"/>
<circle cx="516.5" cy="323.5" r="41.5" fill="#D9D9D9"/>
<ellipse cx="703" cy="498.5" rx="10" ry="27.5" fill="#D9D9D9"/>
<circle cx="535.5" cy="540.5" r="14.5" fill="#D9D9D9"/>
<ellipse cx="395" cy="506.5" rx="10" ry="24.5" transform="rotate(23.6647 395 506.5)" fill="#D9D9D9"/>
<circle cx="331" cy="688" r="10" fill="#D9D9D9"/>
<ellipse cx="509" cy="705" rx="5" ry="63" transform="rotate(47.1396 509 705)" fill="#D9D9D9"/>
</svg>
