<svg width="1682" height="1730" viewBox="0 0 1682 1730" fill="none" xmlns="http://www.w3.org/2000/svg">
<path fill-rule="evenodd" clip-rule="evenodd" d="M943.119 495.568C1098.8 248.066 1225.48 87.9584 1286.11 122.959C1325.35 145.619 1302.23 230.031 1242.06 355.787C1351.79 270.694 1431.12 231.466 1463.01 263.353C1517.56 317.902 1351.21 498.512 1110.73 740.28C1428.82 664.472 1660.77 631.996 1680.2 704.53C1698.35 772.253 1506.43 838.923 1224.2 917.427C1503.56 1003.75 1691 1084.67 1672.88 1152.29C1654.74 1220.01 1455.19 1181.79 1171.52 1108.66C1370.3 1323.09 1492.16 1486.9 1442.67 1536.4C1386.46 1592.6 1196.44 1414.32 943.581 1162.04C942.348 1493.45 931.252 1730 855.5 1730C785.499 1730 755.844 1528 744.77 1235.82C595.895 1488.11 481.824 1656.24 421.105 1621.18C382.052 1598.64 399.413 1511.86 453.204 1383.84C347.307 1474.51 271.756 1518.69 239.71 1486.65C195.316 1442.25 288.771 1305.91 451.928 1123.55C199.665 1186.64 26.0219 1215.25 9.1523 1152.29C-8.96488 1084.67 178.475 1003.75 457.837 917.427C175.607 838.923 -16.3145 772.253 1.83199 704.53C19.9497 636.915 222.74 660.551 507.834 725.477C302.668 516.376 169.794 362.678 219.371 313.101C275.821 256.651 480.941 423.081 740.283 672.289C745.915 287.323 772.013 0 855.5 0C925.612 0 940.338 202.637 943.119 495.568Z" fill="#DF5050"/>
<path d="M796.466 744.929L881.766 789.896L936.746 927.563L920.003 1054.26L844.146 1074.59L766.297 973.235L745.077 826.522L796.466 744.929Z" fill="#EFC1A6"/>
</svg>
